<?xml version="1.0" encoding="UTF-8"?>
<svg width="17px" height="16px" viewBox="0 0 17 16" version="1.1" xmlns="http://www.w3.org/2000/svg" xmlns:xlink="http://www.w3.org/1999/xlink">
    <!-- Generator: Sketch 49.1 (51147) - http://www.bohemiancoding.com/sketch -->
    <title>Shape</title>
    <desc>Created with Sketch.</desc>
    <defs></defs>
    <g id="Page-1" stroke="none" stroke-width="1" fill="none" fill-rule="evenodd">
        <g id="机场概览" transform="translate(-475.000000, -881.000000)" fill="#FF7F21" fill-rule="nonzero" stroke="#FF7F21">
            <g id="Group-18" transform="translate(454.333333, 829.000000)">
                <g id="Group-17" transform="translate(18.158140, 50.757576)">
                    <g id="Group-3">
                        <g id="报警管理" transform="translate(2.269767, 1.991342)">
                            <path d="M9.07906977,3.69238366 C9.36307899,3.69238366 9.59331395,3.49039091 9.59331395,3.24122024 L9.59331395,1.03720915 C9.59331395,0.788038469 9.36307899,0.586045725 9.07906977,0.586045725 C8.79506055,0.586045725 8.56482558,0.788038469 8.56482558,1.03720915 L8.56482558,3.24137581 C8.56482558,3.49054649 8.79506055,3.69253923 9.07906977,3.69253923 L9.07906977,3.69238366 Z M11.5382209,4.26971726 C11.7839743,4.39397345 12.0979988,4.32019017 12.2400756,4.10480925 L13.4964273,2.19638799 C13.6301872,1.98139871 13.5439987,1.71204735 13.3022466,1.58954555 C13.0604945,1.46704374 12.751494,1.53614299 12.6060756,1.74522457 L11.3499012,3.65395698 C11.2083313,3.86964597 11.2925972,4.14517506 11.5382209,4.26971726 Z M16.4038576,4.29647592 C16.2617757,4.08100178 15.9476186,4.00720596 15.7018256,4.13156791 L13.5265727,5.23365124 C13.361629,5.31161786 13.2580711,5.46211873 13.2562659,5.6264885 C13.2544607,5.79085827 13.354694,5.94308185 13.5178946,6.02382239 C13.6810953,6.10456292 13.8814334,6.10104147 14.0408169,6.01463068 L16.2158924,4.91254735 C16.4616644,4.78794313 16.5458757,4.51219365 16.4040349,4.29647592 L16.4038576,4.29647592 Z M5.91788663,4.10480925 C6.06406362,4.31234047 6.37179891,4.38033433 6.61257871,4.2583009 C6.85335851,4.13626747 6.93995344,3.86841685 6.80806105,3.65364583 L5.55188663,1.74553571 C5.46301888,1.60082519 5.29147528,1.50997042 5.10412366,1.50838668 C4.91677204,1.50680293 4.74326486,1.59474085 4.65123534,1.73792219 C4.55920582,1.88110353 4.56321964,2.05686671 4.66171221,2.19669913 L5.91788663,4.10480925 Z M4.11767733,6.01416396 C4.27706084,6.10057474 4.47739888,6.1040962 4.64059954,6.02335566 C4.80380021,5.94261513 4.90403344,5.79039154 4.90222825,5.62602177 C4.90042307,5.46165201 4.79686517,5.31115114 4.63192151,5.23318452 L2.45649128,4.13094562 C2.29710777,4.04453483 2.09676972,4.04101338 1.93356906,4.12175391 C1.7703684,4.20249445 1.67013516,4.35471803 1.67194035,4.5190878 C1.67374554,4.68345757 1.77730343,4.83395844 1.94224709,4.91192505 L4.11767733,6.01416396 Z M14.3846512,10.7059005 L13.5138052,10.7059005 L13.5138052,8.70776515 C13.5165789,7.67610927 13.0484914,6.6864147 12.2140087,5.95955763 C11.3743721,5.22276109 10.2634273,4.81702516 9.0827936,4.81702516 C7.90602369,4.81543926 6.77740954,5.22683393 5.94838663,5.95955763 C5.10857267,6.69635417 4.64415698,7.67242289 4.64415698,8.70776515 L4.64415698,10.7059005 L3.77331105,10.7059005 C2.71467733,10.7059005 1.85340698,11.4636995 1.85340698,12.3924738 C1.85340698,13.3212482 2.71467733,14.0790472 3.77331105,14.0790472 L14.3846512,14.0790472 C15.4432849,14.0790472 16.3045552,13.3212482 16.3045552,12.3924738 C16.3045552,11.4636995 15.4432849,10.7059005 14.3846512,10.7059005 Z M5.67193605,8.70776515 C5.67193605,7.91325081 6.0299564,7.16369724 6.67559884,6.59709821 C7.31222135,6.03428 8.17883361,5.71803596 9.08261628,5.71872971 C9.98821802,5.71872971 10.8409767,6.03065476 11.4866192,6.59709821 C12.1278586,7.15521504 12.4877646,7.91530766 12.4860262,8.70776515 L12.4860324,10.7059005 L5.67193605,10.7059005 L5.67193605,8.70776515 Z M14.3846512,13.1773426 L3.77331105,13.1773426 C3.45072874,13.1813274 3.15068765,13.0326247 2.9880711,12.7881716 C2.82545455,12.5437185 2.82545455,12.2413848 2.9880711,11.9969317 C3.15068765,11.7524785 3.45072874,11.6037758 3.77331105,11.6077606 L14.3846512,11.6077606 C14.7072335,11.6037758 15.0072746,11.7524785 15.1698911,11.9969317 C15.3325077,12.2413848 15.3325077,12.5437185 15.1698911,12.7881716 C15.0072746,13.0326247 14.7072335,13.1813274 14.3846512,13.1773426 Z" id="Shape"></path>
                        </g>
                    </g>
                </g>
            </g>
        </g>
    </g>
</svg>