<?xml version="1.0" encoding="UTF-8"?>
<svg width="54px" height="38px" viewBox="0 0 54 38" version="1.1" xmlns="http://www.w3.org/2000/svg" xmlns:xlink="http://www.w3.org/1999/xlink">
    <!-- Generator: Sketch 49.1 (51147) - http://www.bohemiancoding.com/sketch -->
    <title>碳</title>
    <desc>Created with Sketch.</desc>
    <defs></defs>
    <g id="Page-1" stroke="none" stroke-width="1" fill="none" fill-rule="evenodd">
        <g id="机场概览" transform="translate(-34.000000, -159.000000)" fill-rule="nonzero">
            <g id="碳排放" transform="translate(15.000000, 88.000000)">
                <g id="Group-14" transform="translate(19.000000, 70.000000)">
                    <g id="碳" transform="translate(0.000000, 1.000000)">
                        <path d="M46.2164197,18.6533333 C44.8200423,18.6533333 43.4763585,18.92 42.2314749,19.4 C41.5925665,11.8866667 35.7106563,6 28.5575159,6 C21.6151494,6 15.884733,11.5333333 14.9560104,18.72 C14.5673959,18.68 14.1721948,18.6533333 13.7769936,18.6533333 C7.27593507,18.6533333 2,24.32 2,31.3066667 C2,38.3 7.13102799,43.9933333 13.6320866,43.9933333 C13.7440602,43.9933333 14.1985415,43.9733333 14.3895554,43.96 L14.3039285,43.96 L14.3039285,43.9466667 C14.5212891,43.9466667 14.5081157,43.9533333 14.3895554,43.96 L43.6739591,44 C44.5302282,44 45.3008704,43.96 46.2230064,43.96 C52.7240649,43.96 58,38.2933333 58,31.3066667 C57.9934133,24.32 52.7174782,18.6533333 46.2164197,18.6533333 Z" id="Shape"></path>
                        <path d="M39.6986008,38 L12.7615649,37.9628301 C12.694814,37.9690251 12.6098582,37.9690251 12.5188342,37.9752201 C12.3185814,37.9814151 12.1001238,37.993805 12.0273046,37.993805 C8.7686454,37.993805 5.72237551,36.6123247 3.45891203,34.1033583 C1.22578988,31.6377568 0,28.354418 0,24.86045 C0,17.6371047 5.44930351,11.7642648 12.1547382,11.7580698 C13.5565078,4.97456798 19.224269,0 25.777997,0 C29.2975917,0 32.6594115,1.41865015 35.2444931,3.98956635 C37.4169326,6.15161396 38.8854531,8.97032931 39.4619384,12.0616237 C40.3054275,11.8633844 41.1731897,11.7642648 42.0470201,11.7642648 C44.0677529,11.7642648 46.0702809,12.3094229 47.8361465,13.3377894 C48.4672462,13.7032931 48.6857038,14.5272253 48.3216078,15.1653081 C47.9635801,15.8095859 47.1565006,16.0326052 46.5314692,15.6609064 C45.1600409,14.8617542 43.6126329,14.4404956 42.0470201,14.4404956 C40.9486638,14.4404956 39.8745806,14.6449299 38.8429752,15.0476035 L37.2166798,15.6856863 L37.0649731,13.9139224 C36.5248974,7.51450929 31.670284,2.6886208 25.7719287,2.6886208 C20.1466455,2.6886208 15.3223735,7.26671014 14.5456353,13.3439843 L14.3817921,14.6387349 L13.1074561,14.5024454 C12.7919062,14.4652755 12.4702881,14.4528856 12.1547382,14.4528856 C6.89961925,14.4528856 2.62149122,19.1300946 2.62149122,24.8728399 C2.62149122,30.3739811 6.46877232,34.8963156 11.329454,35.2927943 L12.6462678,35.2804043 L12.810111,35.2804043 C12.8586572,35.2804043 12.9072033,35.2865993 12.9557494,35.2927943 L39.7046691,35.3237692 C40.0809016,35.3237692 40.4389294,35.3175742 40.8030254,35.3051842 C41.1974627,35.2989892 41.6040366,35.2865993 42.0530883,35.2865993 C46.5557422,35.2865993 50.4819108,31.7926312 51.3921508,26.9853277 C51.5317209,26.2605152 52.2174351,25.7835018 52.9334905,25.9197913 C53.6434778,26.0622758 54.1107343,26.7623084 53.9772324,27.4933159 C52.8181935,33.5582002 47.8058052,37.9690251 42.0470201,37.9690251 C41.6222414,37.9690251 41.2399406,37.9752201 40.8576398,37.98761 C40.475339,37.993805 40.0991064,38 39.6986008,38 Z" id="Shape" fill="#FFFFFF"></path>
                        <path d="M31.1571747,24.8115476 C31.1571747,25.2130823 31.0767203,25.6427949 30.9158114,26.1077298 C30.7549026,26.5726647 30.4989113,27.0305551 30.1551516,27.4814011 C29.8113918,27.9322471 29.3652355,28.291515 28.8313108,28.5732937 C28.2973861,28.8550725 27.6683789,28.9959618 26.9516032,28.9959618 C26.4103645,28.9959618 25.920324,28.9325616 25.4741677,28.8057612 C25.0280114,28.6789608 24.6257394,28.4817156 24.2673516,28.2210703 C23.9089637,27.9533805 23.572518,27.6082016 23.2726425,27.1714445 C23.0020231,26.7769543 22.7679739,26.3331528 22.5778089,25.8470844 C22.387644,25.3610161 22.2413632,24.8397255 22.1462807,24.2832125 C22.0511983,23.7266995 22,23.1420086 22,22.5150509 C22,21.5006474 22.1170246,20.5989555 22.3583878,19.7958861 C22.5997511,18.9928167 22.9435108,18.3095032 23.3896671,17.7459458 C23.8358234,17.1753438 24.362434,16.7456312 24.9621851,16.4497636 C25.5619362,16.1538959 26.2055714,16.0059621 26.8857769,16.0059621 C27.7195771,16.0059621 28.4582949,16.2102516 29.1092442,16.6117863 C29.7601935,17.0203655 30.2575481,17.5205228 30.6013078,18.1193026 C30.9450676,18.7180824 31.1206045,19.2816399 31.1206045,19.809975 C31.1206045,20.0987982 31.032836,20.3594435 30.8719272,20.5848665 C30.7110184,20.8102895 30.4989113,20.9159566 30.2648621,20.9159566 C30.0015568,20.9159566 29.7967637,20.8384674 29.6651111,20.6834891 C29.5334584,20.5285108 29.3871776,20.260821 29.2189548,19.8874642 C28.9483354,19.2675509 28.6265178,18.7955716 28.2608159,18.4926594 C27.895114,18.1827028 27.4416437,18.0277245 26.907719,18.0277245 C26.0519767,18.0277245 25.3717712,18.4222147 24.8671026,19.2182397 C24.362434,20.0142646 24.1064427,21.1413795 24.1064427,22.606629 C24.1064427,23.5858101 24.2161533,24.395924 24.4428885,25.044015 C24.6696236,25.6921061 24.9841272,26.1781745 25.3937133,26.4951755 C25.8032994,26.8121766 26.2860258,26.9741994 26.8345786,26.9741994 C27.4343297,26.9741994 27.9389983,26.7910432 28.3485844,26.4317753 C28.7581704,26.065463 29.072674,25.5371278 29.2847811,24.832681 C29.3725496,24.501591 29.4822601,24.2339012 29.6139128,24.0225671 C29.7455655,23.8112331 29.9576726,23.7126105 30.24292,23.7126105 C30.4915973,23.7126105 30.7037044,23.8182775 30.8792413,24.0296116 C31.0694062,24.2339012 31.1571747,24.4945465 31.1571747,24.8115476 Z" id="Shape" fill="#FFFFFF"></path>
                    </g>
                </g>
            </g>
        </g>
    </g>
</svg>