<?xml version="1.0" encoding="UTF-8"?>
<svg width="54px" height="38px" viewBox="0 0 54 38" version="1.1" xmlns="http://www.w3.org/2000/svg" xmlns:xlink="http://www.w3.org/1999/xlink">
    <!-- Generator: Sketch 49.1 (51147) - http://www.bohemiancoding.com/sketch -->
    <title>二氧化碳浓度</title>
    <desc>Created with Sketch.</desc>
    <defs></defs>
    <g id="Page-1" stroke="none" stroke-width="1" fill="none" fill-rule="evenodd">
        <g id="机场概览" transform="translate(-246.000000, -159.000000)" fill-rule="nonzero">
            <g id="碳排放" transform="translate(15.000000, 88.000000)">
                <g id="Group-14-Copy" transform="translate(231.000000, 70.000000)">
                    <g id="二氧化碳浓度" transform="translate(0.000000, 1.000000)">
                        <path d="M46.2164197,18.6533333 C44.8200423,18.6533333 43.4763585,18.92 42.2314749,19.4 C41.5925665,11.8866667 35.7106563,6 28.5575159,6 C21.6151494,6 15.884733,11.5333333 14.9560104,18.72 C14.5673959,18.68 14.1721948,18.6533333 13.7769936,18.6533333 C7.27593507,18.6533333 2,24.32 2,31.3066667 C2,38.3 7.13102799,43.9933333 13.6320866,43.9933333 C13.7440602,43.9933333 14.1985415,43.9733333 14.3895554,43.96 L14.3039285,43.96 L14.3039285,43.9466667 C14.5212891,43.9466667 14.5081157,43.9533333 14.3895554,43.96 L43.6739591,44 C44.5302282,44 45.3008704,43.96 46.2230064,43.96 C52.7240649,43.96 58,38.2933333 58,31.3066667 C57.9934133,24.32 52.7174782,18.6533333 46.2164197,18.6533333 Z" id="Shape"></path>
                        <path d="M39.6986008,38 L12.7615649,37.9628301 C12.694814,37.9690251 12.6098582,37.9690251 12.5188342,37.9752201 C12.3185814,37.9814151 12.1001238,37.993805 12.0273046,37.993805 C8.7686454,37.993805 5.72237551,36.6123247 3.45891203,34.1033583 C1.22578988,31.6377568 0,28.354418 0,24.86045 C0,17.6371047 5.44930351,11.7642648 12.1547382,11.7580698 C13.5565078,4.97456798 19.224269,0 25.777997,0 C29.2975917,0 32.6594115,1.41865015 35.2444931,3.98956635 C37.4169326,6.15161396 38.8854531,8.97032931 39.4619384,12.0616237 C40.3054275,11.8633844 41.1731897,11.7642648 42.0470201,11.7642648 C44.0677529,11.7642648 46.0702809,12.3094229 47.8361465,13.3377894 C48.4672462,13.7032931 48.6857038,14.5272253 48.3216078,15.1653081 C47.9635801,15.8095859 47.1565006,16.0326052 46.5314692,15.6609064 C45.1600409,14.8617542 43.6126329,14.4404956 42.0470201,14.4404956 C40.9486638,14.4404956 39.8745806,14.6449299 38.8429752,15.0476035 L37.2166798,15.6856863 L37.0649731,13.9139224 C36.5248974,7.51450929 31.670284,2.6886208 25.7719287,2.6886208 C20.1466455,2.6886208 15.3223735,7.26671014 14.5456353,13.3439843 L14.3817921,14.6387349 L13.1074561,14.5024454 C12.7919062,14.4652755 12.4702881,14.4528856 12.1547382,14.4528856 C6.89961925,14.4528856 2.62149122,19.1300946 2.62149122,24.8728399 C2.62149122,30.3739811 6.46877232,34.8963156 11.329454,35.2927943 L12.6462678,35.2804043 L12.810111,35.2804043 C12.8586572,35.2804043 12.9072033,35.2865993 12.9557494,35.2927943 L39.7046691,35.3237692 C40.0809016,35.3237692 40.4389294,35.3175742 40.8030254,35.3051842 C41.1974627,35.2989892 41.6040366,35.2865993 42.0530883,35.2865993 C46.5557422,35.2865993 50.4819108,31.7926312 51.3921508,26.9853277 C51.5317209,26.2605152 52.2174351,25.7835018 52.9334905,25.9197913 C53.6434778,26.0622758 54.1107343,26.7623084 53.9772324,27.4933159 C52.8181935,33.5582002 47.8058052,37.9690251 42.0470201,37.9690251 C41.6222414,37.9690251 41.2399406,37.9752201 40.8576398,37.98761 C40.475339,37.993805 40.0991064,38 39.6986008,38 Z" id="Shape" fill="#FFFFFF"></path>
                        <path d="M24.7501407,25.4585366 C24.7501407,25.798374 24.6820484,26.1620596 24.5458638,26.5555556 C24.4096792,26.9490515 24.1930219,27.3365854 23.9020822,27.7181572 C23.6111424,28.099729 23.2335397,28.403794 22.7816545,28.6422764 C22.3297693,28.8807588 21.7974114,29 21.190771,29 C20.7326956,29 20.3179516,28.9463415 19.9403489,28.8390244 C19.5627462,28.7317073 19.2222847,28.5647696 18.9189645,28.3441734 C18.6156443,28.1176152 18.3308948,27.8254743 18.0770962,27.4558266 C17.8480585,27.1219512 17.6499719,26.7463415 17.4890264,26.3349593 C17.328081,25.9235772 17.2042769,25.4823848 17.1238042,25.0113821 C17.0433315,24.5403794 17,24.0455285 17,23.5149051 C17,22.6563686 17.0990433,21.8932249 17.3033202,21.2135501 C17.5075971,20.5338753 17.7985369,19.9555556 18.1761396,19.4785908 C18.5537423,18.995664 18.9994373,18.6319783 19.5070343,18.3815718 C20.0146314,18.1311653 20.5593697,18.0059621 21.1350591,18.0059621 C21.8407428,18.0059621 22.4659539,18.1788618 23.0168824,18.5186992 C23.5678109,18.8644986 23.9887451,19.2878049 24.2796849,19.7945799 C24.5706246,20.301355 24.7191896,20.7783198 24.7191896,21.2254743 C24.7191896,21.4699187 24.6449071,21.6905149 24.5087226,21.8813008 C24.372538,22.0720867 24.1930219,22.1615176 23.9949353,22.1615176 C23.7720878,22.1615176 23.598762,22.095935 23.4873382,21.9647696 C23.3759145,21.8336043 23.2521103,21.6070461 23.1097355,21.2910569 C22.8806978,20.7663957 22.6083286,20.3669377 22.2988182,20.1105691 C21.9893078,19.8482385 21.6055149,19.7170732 21.1536297,19.7170732 C20.4293754,19.7170732 19.853686,20.0509485 19.4265616,20.7246612 C18.9994373,21.398374 18.78278,22.3523035 18.78278,23.5924119 C18.78278,24.4211382 18.8756331,25.1067751 19.0675295,25.6552846 C19.259426,26.203794 19.525605,26.6151762 19.8722566,26.8834688 C20.2189083,27.1517615 20.627462,27.2888889 21.0917276,27.2888889 C21.5993247,27.2888889 22.0264491,27.1338753 22.3731007,26.8298103 C22.7197524,26.5197832 22.9859313,26.0726287 23.1654474,25.4764228 C23.2397299,25.196206 23.332583,24.9696477 23.4440068,24.7907859 C23.5554305,24.6119241 23.7349465,24.5284553 23.9763647,24.5284553 C24.1868317,24.5284553 24.3663478,24.6178862 24.5149128,24.796748 C24.6758582,24.9696477 24.7501407,25.1902439 24.7501407,25.4585366 Z M30.1541925,18 C31.0579629,18 31.8317389,18.2265583 32.4755205,18.6737127 C33.1193022,19.1208672 33.6083286,19.7588076 33.9425999,20.5815718 C34.2768711,21.404336 34.4378165,22.3761518 34.4378165,23.4850949 C34.4378165,24.3078591 34.3449634,25.0531165 34.1654474,25.7268293 C33.9859313,26.400542 33.7135622,26.9848238 33.3483399,27.4737127 C32.9831176,27.9685637 32.5374226,28.3441734 32.0112549,28.6065041 C31.478897,28.8688347 30.8722566,29 30.1913337,29 C29.5104108,29 28.9037704,28.8628726 28.3652223,28.5945799 C27.8266742,28.3262873 27.3809792,27.9447154 27.0219471,27.4617886 C26.662915,26.9728997 26.3905459,26.3826558 26.2048396,25.697019 C26.0191334,25.0113821 25.9262802,24.2661247 25.9262802,23.4672087 C25.9262802,22.6504065 26.0191334,21.899187 26.2110298,21.2195122 C26.4029263,20.5398374 26.6814856,19.9555556 27.0467079,19.4785908 C27.4119302,19.001626 27.851435,18.6319783 28.3776027,18.3815718 C28.8975802,18.1252033 29.4918402,18 30.1541925,18 Z M32.6612268,23.4731707 C32.6612268,22.6921409 32.5559932,22.0184282 32.3517164,21.4460705 C32.1474395,20.8737127 31.8503095,20.4444444 31.4727068,20.1523035 C31.0889139,19.8601626 30.6555993,19.7111111 30.1603827,19.7111111 C29.8075408,19.7111111 29.48565,19.7945799 29.1823298,19.9555556 C28.8851998,20.1165312 28.625211,20.3550136 28.414744,20.6650407 C28.1980867,20.9750678 28.030951,21.3685637 27.9071469,21.8514905 C27.7833427,22.3344173 27.7214406,22.8710027 27.7214406,23.4731707 C27.7214406,24.0753388 27.7833427,24.6238482 27.9071469,25.1127371 C28.030951,25.601626 28.2104671,26.0070461 28.4333146,26.3289973 C28.6623523,26.6509485 28.922341,26.8894309 29.2132808,27.0504065 C29.5104108,27.2113821 29.8323016,27.2888889 30.1851435,27.2888889 C30.6370287,27.2888889 31.0517727,27.1517615 31.4293754,26.8775068 C31.8069781,26.603252 32.104108,26.1739837 32.3331458,25.601626 C32.5436128,25.0233062 32.6612268,24.3138211 32.6612268,23.4731707 Z M36.6043894,27.801626 L38.4366911,27.801626 C38.6223973,27.801626 38.7585819,27.8493225 38.8576252,27.9387534 C38.9566685,28.0281843 39,28.1533875 39,28.3143631 C39,28.4574526 38.9628588,28.5707317 38.8885763,28.6720867 C38.8142938,28.7674797 38.6966798,28.8211382 38.5419246,28.8211382 L35.9606078,28.8211382 C35.7872819,28.8211382 35.6510974,28.7615176 35.552054,28.6422764 C35.4530107,28.5230352 35.403489,28.3859079 35.403489,28.2249322 C35.403489,28.1235772 35.4344401,27.9864499 35.4963421,27.8135501 C35.5582442,27.6406504 35.6263365,27.5094851 35.700619,27.4140921 C36.0101294,27.0205962 36.294879,26.6807588 36.5424873,26.3945799 C36.7900957,26.1143631 36.9696117,25.9295393 37.0810355,25.8401084 C37.2729319,25.6731707 37.4338773,25.5062331 37.5576815,25.3392954 C37.6876759,25.1723577 37.780529,24.999458 37.8486213,24.8205962 C37.9167136,24.6417344 37.9476646,24.4688347 37.9476646,24.301897 C37.9476646,24.1170732 37.9105234,23.9560976 37.8424311,23.8070461 C37.7681486,23.6639566 37.6752954,23.5506775 37.5514913,23.4672087 C37.4276871,23.3897019 37.2976927,23.3479675 37.1491277,23.3479675 C36.8396173,23.3479675 36.6043894,23.5149051 36.4248734,23.8428184 C36.4001125,23.8845528 36.3629713,24.003794 36.3072594,24.1945799 C36.2515476,24.3853659 36.1896455,24.5344173 36.1215532,24.6357724 C36.0534609,24.7371274 35.9482273,24.7907859 35.818233,24.7907859 C35.700619,24.7907859 35.6015757,24.7430894 35.5272932,24.6476965 C35.4530107,24.5523035 35.4096792,24.4271003 35.4096792,24.2601626 C35.4096792,24.0634146 35.4468205,23.8547425 35.521103,23.6401084 C35.5953855,23.4254743 35.700619,23.2287263 35.8429938,23.0558266 C35.9853686,22.8829268 36.1710748,22.7398374 36.3877321,22.6325203 C36.6105796,22.5252033 36.8705684,22.4715447 37.1676984,22.4715447 C37.5267304,22.4715447 37.8300506,22.5430894 38.0838492,22.6802168 C38.2447946,22.7696477 38.3933596,22.900813 38.5171638,23.0558266 C38.6409679,23.2168022 38.7400113,23.401626 38.8081035,23.6102981 C38.8761958,23.8189702 38.9133371,24.0395664 38.9133371,24.2661247 C38.9133371,24.6238482 38.8390546,24.9457995 38.6966798,25.2379404 C38.554305,25.5300813 38.40574,25.7566396 38.257175,25.9235772 C38.10861,26.0905149 37.8548115,26.3468835 37.5019696,26.698645 C37.1491277,27.0504065 36.9077096,27.3246612 36.7777153,27.5214092 C36.7220034,27.604878 36.6601013,27.6943089 36.6043894,27.801626 Z" id="Shape" fill="#FFFFFF"></path>
                    </g>
                </g>
            </g>
        </g>
    </g>
</svg>