<?xml version="1.0" encoding="UTF-8"?>
<svg width="54px" height="38px" viewBox="0 0 54 38" version="1.1" xmlns="http://www.w3.org/2000/svg" xmlns:xlink="http://www.w3.org/1999/xlink">
    <!-- Generator: Sketch 49.1 (51147) - http://www.bohemiancoding.com/sketch -->
    <title>氮氧化物</title>
    <desc>Created with Sketch.</desc>
    <defs></defs>
    <g id="Page-1" stroke="none" stroke-width="1" fill="none" fill-rule="evenodd">
        <g id="机场概览" transform="translate(-246.000000, -237.000000)">
            <g id="碳排放" transform="translate(15.000000, 88.000000)">
                <g id="Group-14-Copy-3" transform="translate(231.000000, 148.000000)">
                    <g id="二氧化碳浓度" transform="translate(0.000000, 1.000000)">
                        <g id="氮氧化物">
                            <path d="M46.2164197,18.6533333 C44.8200423,18.6533333 43.4763585,18.92 42.2314749,19.4 C41.5925665,11.8866667 35.7106563,6 28.5575159,6 C21.6151494,6 15.884733,11.5333333 14.9560104,18.72 C14.5673959,18.68 14.1721948,18.6533333 13.7769936,18.6533333 C7.27593507,18.6533333 2,24.32 2,31.3066667 C2,38.3 7.13102799,43.9933333 13.6320866,43.9933333 C13.7440602,43.9933333 14.1985415,43.9733333 14.3895554,43.96 L14.3039285,43.96 L14.3039285,43.9466667 C14.5212891,43.9466667 14.5081157,43.9533333 14.3895554,43.96 L43.6739591,44 C44.5302282,44 45.3008704,43.96 46.2230064,43.96 C52.7240649,43.96 58,38.2933333 58,31.3066667 C57.9934133,24.32 52.7174782,18.6533333 46.2164197,18.6533333 Z" id="Shape" fill-rule="nonzero"></path>
                            <path d="M39.6986008,38 L12.7615649,37.9628301 C12.694814,37.9690251 12.6098582,37.9690251 12.5188342,37.9752201 C12.3185814,37.9814151 12.1001238,37.993805 12.0273046,37.993805 C8.7686454,37.993805 5.72237551,36.6123247 3.45891203,34.1033583 C1.22578988,31.6377568 0,28.354418 0,24.86045 C0,17.6371047 5.44930351,11.7642648 12.1547382,11.7580698 C13.5565078,4.97456798 19.224269,0 25.777997,0 C29.2975917,0 32.6594115,1.41865015 35.2444931,3.98956635 C37.4169326,6.15161396 38.8854531,8.97032931 39.4619384,12.0616237 C40.3054275,11.8633844 41.1731897,11.7642648 42.0470201,11.7642648 C44.0677529,11.7642648 46.0702809,12.3094229 47.8361465,13.3377894 C48.4672462,13.7032931 48.6857038,14.5272253 48.3216078,15.1653081 C47.9635801,15.8095859 47.1565006,16.0326052 46.5314692,15.6609064 C45.1600409,14.8617542 43.6126329,14.4404956 42.0470201,14.4404956 C40.9486638,14.4404956 39.8745806,14.6449299 38.8429752,15.0476035 L37.2166798,15.6856863 L37.0649731,13.9139224 C36.5248974,7.51450929 31.670284,2.6886208 25.7719287,2.6886208 C20.1466455,2.6886208 15.3223735,7.26671014 14.5456353,13.3439843 L14.3817921,14.6387349 L13.1074561,14.5024454 C12.7919062,14.4652755 12.4702881,14.4528856 12.1547382,14.4528856 C6.89961925,14.4528856 2.62149122,19.1300946 2.62149122,24.8728399 C2.62149122,30.3739811 6.46877232,34.8963156 11.329454,35.2927943 L12.6462678,35.2804043 L12.810111,35.2804043 C12.8586572,35.2804043 12.9072033,35.2865993 12.9557494,35.2927943 L39.7046691,35.3237692 C40.0809016,35.3237692 40.4389294,35.3175742 40.8030254,35.3051842 C41.1974627,35.2989892 41.6040366,35.2865993 42.0530883,35.2865993 C46.5557422,35.2865993 50.4819108,31.7926312 51.3921508,26.9853277 C51.5317209,26.2605152 52.2174351,25.7835018 52.9334905,25.9197913 C53.6434778,26.0622758 54.1107343,26.7623084 53.9772324,27.4933159 C52.8181935,33.5582002 47.8058052,37.9690251 42.0470201,37.9690251 C41.6222414,37.9690251 41.2399406,37.9752201 40.8576398,37.98761 C40.475339,37.993805 40.0991064,38 39.6986008,38 Z" id="Shape" fill="#FFFFFF" fill-rule="nonzero"></path>
                            <text id="N" font-family="PingFangSC-Semibold, PingFang SC" font-size="14" font-weight="500" fill="#FFFFFF">
                                <tspan x="15" y="28">N</tspan>
                            </text>
                            <text id="O" font-family="PingFangSC-Semibold, PingFang SC" font-size="14" font-weight="500" fill="#FFFFFF">
                                <tspan x="26" y="28">O</tspan>
                            </text>
                            <text id="X" font-family="PingFangSC-Semibold, PingFang SC" font-size="6" font-weight="500" fill="#FFFFFF">
                                <tspan x="37" y="28">X</tspan>
                            </text>
                        </g>
                    </g>
                </g>
            </g>
        </g>
    </g>
</svg>