<?xml version="1.0" encoding="UTF-8"?>
<svg width="47px" height="39px" viewBox="0 0 47 39" version="1.1" xmlns="http://www.w3.org/2000/svg" xmlns:xlink="http://www.w3.org/1999/xlink">
    <!-- Generator: Sketch 49.1 (51147) - http://www.bohemiancoding.com/sketch -->
    <title>飞机</title>
    <desc>Created with Sketch.</desc>
    <defs></defs>
    <g id="Page-1" stroke="none" stroke-width="1" fill="none" fill-rule="evenodd">
        <g id="机场概览" transform="translate(-1263.000000, -171.000000)" fill="#1CEAFF" fill-rule="nonzero">
            <g id="旅客信息" transform="translate(1039.333333, 88.000000)">
                <g id="社会贡献-copy-2">
                    <g id="飞机" transform="translate(223.964539, 83.511809)">
                        <path d="M45.3919833,0.702784631 C46.3569624,1.6554031 46.4898637,3.00735153 45.7906872,4.76825234 C45.0915108,6.52434194 43.895399,8.10241698 42.2254651,9.49285505 L36.9094128,13.9143519 L42.1965736,33.0196445 C42.3063616,33.3660512 42.1734603,33.6739683 41.7978696,33.9241509 L37.5739193,36.5558797 C37.423683,36.6665374 37.2098853,36.7194607 36.949861,36.7194607 C36.8631862,36.7194607 36.7880681,36.7098383 36.7245066,36.6905935 C36.3893642,36.632859 36.1640098,36.4885229 36.0311085,36.2527739 L26.8204699,22.3147148 L18.2858945,29.4208636 L20.0309464,34.7420557 C20.1407345,35.054784 20.0540597,35.3338338 19.7651438,35.5888277 L16.5986257,38.2349901 C16.4021629,38.398571 16.1479169,38.4851727 15.8474444,38.4851727 L15.7781045,38.4851727 C15.4429621,38.4514943 15.1829378,38.3312142 14.986475,38.1243324 L8.74589177,31.2058205 L0.436670757,26.0241533 C0.193981409,25.899062 0.0553017815,25.6825578 0.00329692126,25.3986968 C-0.01981635,25.1581365 0.0784150528,24.9320099 0.303769447,24.7106945 L3.46450929,22.0500985 C3.66097209,21.8865176 3.91521808,21.7999159 4.2156906,21.7999159 C4.34859191,21.7999159 4.43526668,21.8095383 4.48149322,21.8287831 L10.8723127,23.2817668 L19.4068881,16.175618 L2.68443638,8.49693574 C2.37818554,8.35259961 2.19327937,8.13128421 2.12393956,7.83780074 C2.08349133,7.53950607 2.17594442,7.30375705 2.42441208,7.09687527 L6.6483624,3.57988486 C6.95461324,3.33932464 7.28397736,3.26715657 7.64223306,3.35856945 L29.5709491,7.72233184 L34.8465533,3.32970223 C36.5164872,1.93926416 38.4117754,0.952967259 40.5208614,0.361189119 C42.6126124,-0.216155407 44.2478764,-0.100686502 45.3919833,0.702784631 Z"></path>
                    </g>
                </g>
            </g>
        </g>
    </g>
</svg>